<svg width="30" height="30" id="DP_Markenclip" xmlns="http://www.w3.org/2000/svg" xmlns:xlink="http://www.w3.org/1999/xlink" viewBox="0 0 108.9997 106.0001">
                <defs>
                    <style>.cls-1{fill:#baa03e;}.cls-2{fill:url(#Unbenannter_Verlauf);}</style>
                    <linearGradient id="Unbenannter_Verlauf" y1="106" x2="1" y2="106" gradientTransform="matrix(0, 103, 103, 0, -10862.0003, 0.0002)" gradientUnits="userSpaceOnUse">
                        <stop offset="0" stop-color="#fff4d8"></stop>
                        <stop offset="0.08" stop-color="#ffe680"></stop>
                        <stop offset="0.2831" stop-color="#ffd942"></stop>
                        <stop offset="0.4615" stop-color="#ffd012"></stop>
                        <stop offset="0.55" stop-color="#fc0"></stop>
                        <stop offset="1" stop-color="#fc0"></stop>
                    </linearGradient>
                </defs>
                <title>DP-Logo_MC_rgb_LO</title>
                <polygon class="logo-shadow cls-1" points="105.75 12.5 105.75 102.75 9 102.75 9 106 109 106 109 12.5 105.75 12.5"></polygon>
                <polygon class="logo-lasche cls-1" points="6 0 0 12.5 7 12.5 7 0 6 0"></polygon>
                <rect class="logo-gradient cls-2" x="5.9997" y="0.0002" width="100" height="103"></rect>
                <path d="M45.1719,67.5078h8.94l-9.029,9.122h-8.941ZM24.0813,76.63h8.943l9.026-9.122h-8.939Zm41.0476-9.122h-8.942l9.03,9.122h8.94Zm12.0606,0h-8.942l9.029,9.122h8.94Zm13.23-36.498c-1.269,18.586-15.232,34.865-35.949,34.856-23.435-.006-32.495-20.346-31.275-35.758l6.883-2.186c-1.119,8.771,1.601,15.097,3.476,17.996-2.233-12.408,7.15-22.452,18.894-22.46,10.564-.007,19.301,7.693,19.259,18.741a58.5029,58.5029,0,0,0,2.851-15.13ZM65.1751,42.59a12.694,12.694,0,1,0-12.696,12.672A12.6817,12.6817,0,0,0,65.1751,42.59Z" transform="translate(-0.0003 0.0002)"></path>
            </svg>